# xmcd
#
# Track frame offsets:
#	150
#	17736
#	32067
#	46302
#
# Disc length: 899 seconds
#
# Revision: 1
# Processed by: cddbd v1.4PL0 Copyright (c) Steve Scherf et al.
# Submitted via: audiograbber 1.82.01
#
DISCID=28038104
DTITLE=The Howard Way - The Howard Way
DYEAR=1998
DGENRE=Country
TTITLE0=Chantal Lane
TTITLE1=Rusty Nails
TTITLE2=Picture Show
TTITLE3=Waltzing the Moon
EXTD=
EXTT0=
EXTT1=
EXTT2=
EXTT3=
PLAYORDER=
